<svg version="1.1" xmlns="http://www.w3.org/2000/svg" viewBox="0 0 1010.4111488252292 1005.3332824707031" width="1010.4111488252292" height="1005.3332824707031">
  <!-- svg-source:excalidraw -->
  
  <defs>
    <style>
      @font-face {
        font-family: "Virgil";
        src: url("https://excalidraw.com/Virgil.woff2");
      }
      @font-face {
        font-family: "Cascadia";
        src: url("https://excalidraw.com/Cascadia.woff2");
      }
    </style>
  </defs>
  <g stroke-linecap="round" transform="translate(273.3408552630899 10) rotate(0 212.13559904714475 53.76540182746598)"><path d="M0 0 C0 0, 0 0, 0 0 M0 0 C0 0, 0 0, 0 0 M-2.79 25.82 C4.15 15.1, 9.07 12.13, 24.55 2.65 M0.39 24.9 C6.7 16.37, 13.72 8.02, 22.84 1.53 M0.98 47.77 C5.33 36.57, 21.13 29.8, 46.06 -3.13 M-1.33 48.46 C13.9 33.31, 29.07 20.19, 40.68 1.82 M2.91 73 C19.63 50.93, 36.61 24.35, 62.75 3.63 M-0.55 74.79 C13.08 55.59, 27.56 43.01, 64.85 0.18 M-0.88 100.89 C31.39 57.34, 64.6 25.63, 85.5 2.81 M-0.79 99.1 C22.92 70.71, 46.33 40.09, 85.65 0.06 M6.28 116.26 C41.49 71.79, 73.76 33.63, 106.95 0.11 M8.16 113.61 C33.06 81.11, 57.64 54.59, 107.79 -1.27 M28.16 116.77 C65.9 77.74, 99.48 34.54, 127.77 0.73 M28.28 115.44 C64.78 67.88, 102.99 25.56, 128.19 1.57 M49.58 113.45 C72.9 83.26, 98.68 63.1, 146.34 3.39 M50.75 111.69 C83.35 72, 115.95 33.79, 149.14 0.58 M72.86 113.31 C93.75 84.8, 120.45 53.05, 165.78 1.88 M71.93 114.5 C102.22 76.39, 132.1 43.03, 168.87 0.37 M90.34 116.87 C122.37 79.31, 145.41 54.57, 191.57 3 M93.41 115.1 C115.66 84.24, 142.71 56.31, 190.62 0.66 M114.11 112.16 C132.9 88.35, 158.26 62.7, 209.94 0.33 M111.13 114.31 C144.98 81.85, 175.16 44.69, 212.56 -1.48 M134.95 116.28 C169.82 82.44, 199.24 39.51, 230.82 3.23 M133.97 112.61 C154.21 85.68, 177.81 60.67, 234.22 1.89 M152.07 113.34 C170.87 85.43, 195.61 62.86, 250.86 1.85 M156.84 112.53 C181.62 84.35, 209.4 57.55, 255.03 -0.95 M175.34 116.24 C210.99 82.14, 241.1 42.87, 272.42 -3.88 M178.54 113.02 C199.42 88.9, 219.3 64.71, 276.82 0.17 M196.41 115.66 C233.02 69.39, 276.42 29.09, 298.6 0.74 M196.29 114.83 C232.51 76.72, 264.95 35.92, 298.3 -1.24 M215.6 117.04 C258.23 68.74, 287.49 29.78, 320.21 2.21 M220.15 114.12 C240.49 88.07, 262.44 62.09, 317.58 1.19 M236.97 113.64 C267.14 81.68, 298.76 47.64, 342.77 -4.21 M239.62 111.88 C264.53 85.72, 287.47 58.71, 338.64 0.19 M263.3 115.47 C301.58 69.05, 339.67 20.12, 356.87 -0.71 M262.06 115.46 C299.31 67.68, 339.6 23.18, 361.22 1.12 M283.09 114.33 C325.21 66.25, 363.06 27.53, 383.79 -0.96 M283.23 112.09 C311.05 83.91, 341.01 52.46, 381.91 0.4 M305.54 112.81 C340.73 77.18, 376.72 34.12, 402.55 -0.6 M305.79 114.33 C336.01 77.62, 363.44 41.17, 400.72 -0.4 M322.94 114.02 C364.48 71.22, 407.91 27.11, 427.55 0.77 M325.12 114.39 C359.56 74.35, 393.73 31.77, 422.2 -0.1 M348.25 115.6 C364.14 88.69, 382.95 67.68, 437.74 7.89 M346.46 114.53 C366.41 85.84, 391.25 60.64, 436.11 10.89 M366.18 111.24 C392.1 80.31, 423.37 52.13, 435.32 32.74 M367.48 113.18 C389.2 85.12, 414.26 55.94, 435.68 33.97 M386.83 116.64 C406.62 100.22, 419.3 76.19, 432.66 58.47 M387.4 115.35 C402.65 100.65, 410.95 89.24, 435.93 58.81 M407.99 111.28 C416.21 106.84, 430.92 89.38, 436.38 83.36 M408.81 114.9 C419.58 103.05, 428.19 94.23, 437.34 83.78" stroke="var(--bg-1000, #192d48)" stroke-width="2" fill="none"></path><path d="M0.38 0.11 C92.36 2.58, 188.21 0.29, 425.52 0.86 M0.58 0.73 C116.08 0.54, 231.52 0.21, 424.9 0.35 M422.01 -0.25 C423.18 29.17, 425.17 60.95, 424.4 106.87 M424.52 0.14 C422.94 28.46, 423.71 57.52, 424.33 109.31 M422.62 106.86 C325.87 104.37, 229.86 103.22, -0.35 108.49 M423.82 106.95 C293.54 105.78, 160.5 105.84, -1 107.15 M2.96 105.62 C-0.32 76.93, -2.95 37.45, 3.29 -0.94 M1.61 107.57 C0.66 79.59, -2.53 48.81, -0.87 1.79" stroke="var(--fg, #fff)" stroke-width="4" fill="none"></path></g><g transform="translate(278.3408552630899 47.26540182746598) rotate(0 207.13559904714475 16.5)"><text x="207.1355990471447" y="23" font-family="Virgil, Segoe UI Emoji" font-size="26.164496721744587px" fill="var(--fg, #fff)" text-anchor="middle" style="white-space: pre;" direction="ltr">time_table('00:00:02')</text></g><g stroke-linecap="round"><g transform="translate(488.1484435063694 120.74908521829869) rotate(0 2.421410612593263 92.64966284348553)"><path d="M-0.6 2.07 C0.1 31.89, 4.37 151.4, 5.44 180.76 M4.28 0.73 C4.39 30.89, 2.75 154.66, 2.65 184.57" stroke="var(--fg, #fff)" stroke-width="4" fill="none"></path></g><g transform="translate(488.1484435063694 120.74908521829869) rotate(0 2.421410612593263 92.64966284348553)"><path d="M-4.4 154.84 C-3.05 165.23, -3.17 176.06, 4.74 184.86 M-7.99 157.21 C-5.2 165.49, 1.28 177.95, 4.05 182.66" stroke="var(--fg, #fff)" stroke-width="4" fill="none"></path></g><g transform="translate(488.1484435063694 120.74908521829869) rotate(0 2.421410612593263 92.64966284348553)"><path d="M16.12 155.02 C10.36 165.26, 3.14 176.02, 4.74 184.86 M12.53 157.39 C7.51 165.36, 6.18 177.75, 4.05 182.66" stroke="var(--fg, #fff)" stroke-width="4" fill="none"></path></g></g><g stroke-linecap="round" transform="translate(278.2174612887102 317.23086758551983) rotate(0 212.13559904714475 53.76540182746597)"><path d="M0 0 C0 0, 0 0, 0 0 M0 0 C0 0, 0 0, 0 0 M4.14 27.92 C1.46 21.57, 9.49 11.97, 19.34 -4.01 M0.98 22.29 C8.6 16.43, 13.46 9.17, 19.79 0.05 M1.35 52.2 C10.29 34.05, 20.87 26.04, 45.64 -2.51 M-2.1 50.49 C11.81 38.3, 21.01 26.26, 42.81 1.78 M-1.46 73.75 C22.17 49.33, 41.02 17.77, 65.07 3.39 M-0.12 72.5 C19.07 51.44, 33.84 33.39, 63.66 -1.3 M-1.04 94.81 C30.82 62.8, 61.34 24.16, 83.66 0.46 M-1.17 99.09 C22.27 76.73, 40.1 53.41, 86.06 -0.2 M6.42 115.09 C41.79 75.03, 71.72 37.74, 109.15 -2.77 M6.4 112.06 C44.29 74.28, 78.21 32.94, 106.17 -2.09 M31.81 111.1 C59.46 79.3, 83.51 41.9, 129.34 -2.2 M28 112.06 C49.15 89.9, 72.72 64.14, 126.34 -0.01 M47.08 116.78 C89.92 65.57, 128.58 29.47, 149.74 3.78 M48.26 111.79 C73.2 84.73, 100.67 57.59, 148.3 1.59 M69.65 109.98 C96.77 85.39, 124.4 61.08, 168.58 -0.18 M70.97 114.92 C107.25 74.81, 139.1 37.33, 167.72 0.89 M95.01 114.11 C126.42 72.49, 172.45 22.86, 190.5 3.59 M91.15 114.26 C129.76 73.09, 165.54 31.91, 191.28 1.16 M110.36 112.09 C150.49 69.02, 186.5 27.75, 212.82 -0.45 M112.19 114.2 C131.12 87.32, 156.36 61.21, 210.57 1.04 M133.63 111.87 C149.4 89.06, 172.09 71.34, 236.6 -0.07 M132.4 112.75 C168.9 72.5, 206.64 33.03, 232.58 0.04 M155.11 116.45 C194.25 72.35, 232.27 28.05, 253.63 1.77 M154.13 112.04 C193.32 68.33, 235.49 24.55, 254.16 0 M179.85 113.6 C212.1 78.53, 238.98 35.99, 273.39 -0.14 M177.63 112.55 C198.09 88.78, 219.49 65.23, 276.59 -1.36 M198.58 112.87 C223.54 81.92, 245.47 56.42, 294.1 -0.21 M199.52 114.62 C224.44 87.05, 248.09 58.35, 296.02 -0.95 M222.76 110.59 C241.38 85.96, 266.21 63.88, 321.69 -1.09 M219.35 111.96 C256.16 71.65, 291.08 29.33, 317.97 -0.86 M239.59 110.87 C267.91 86.27, 290.74 57.83, 340.81 -0.62 M242.01 113.12 C268.6 80.25, 298.77 45.48, 339.9 1.23 M262.96 114.62 C288.97 86.86, 305.99 64.74, 357.19 -2.12 M260.33 115.02 C296.66 71.1, 332.49 30.71, 360.95 2.21 M280.49 116.51 C300.88 84.03, 328.21 59.08, 379.21 3.6 M281.5 112.45 C315.37 78.06, 346.8 39.63, 383.17 0.1 M304.52 109.99 C328.27 86.01, 356.38 56.61, 401.03 -0.21 M305.6 111.53 C325.36 84.66, 352.11 57.73, 402 0.01 M326.45 117.06 C354.54 80.41, 384.15 49.3, 424.18 1.72 M323.46 116.03 C366.11 69.72, 404.6 23.86, 423.42 0.68 M346.37 110.24 C369.78 85.26, 389.25 68.52, 434.72 9 M345.76 113.78 C376.84 82.06, 404.04 50.43, 436.65 11.27 M364.12 110.07 C384.87 92.68, 410.16 65.95, 437.98 32.5 M365.61 114.76 C384.21 95.91, 402.51 74.73, 436.33 34.75 M384.92 115.15 C400.93 101.19, 414.07 82.92, 437.46 58.23 M387.65 113.55 C405.25 95.68, 420.27 77.74, 436.94 60.34 M413.69 115.83 C419.59 103.83, 429.04 90.87, 434.91 83.35 M409.94 115.58 C421.12 103.49, 427.99 91.03, 436.38 83.96" stroke="var(--bg-1000, #192d48)" stroke-width="2" fill="none"></path><path d="M1.37 -0.16 C110.98 2.3, 220.69 0.18, 424.89 1.97 M-0.83 0.26 C164.02 -4.38, 326.58 -4.74, 423.35 0.95 M423.04 -1.21 C425.15 39.48, 424.23 79.85, 425.08 104.11 M425.29 0.13 C426.48 43.37, 425.51 84.98, 424.7 107.83 M423.88 105.92 C316.06 109.68, 207.46 110.28, -1.98 109.47 M423.6 107 C325.68 109.44, 224.81 110.36, 0.03 106.72 M-3.97 109.48 C-3.57 75.75, -0.49 44.3, -2.14 1.89 M0.81 108.55 C-2.79 77.66, -0.21 47.71, 0.43 0.47" stroke="var(--fg, #fff)" stroke-width="4" fill="none"></path></g><g transform="translate(283.2174612887102 354.49626941298584) rotate(0 207.13559904714475 16.5)"><text x="207.1355990471447" y="23" font-family="Virgil, Segoe UI Emoji" font-size="26.164496721744587px" fill="var(--fg, #fff)" text-anchor="middle" style="white-space: pre;" direction="ltr">table</text></g><g transform="translate(544.4111488252292 201.08888021719326) rotate(0 228 22.5)"><text x="228" y="32" font-family="Virgil, Segoe UI Emoji" font-size="36px" fill="var(--fg, #fff)" text-anchor="middle" style="white-space: pre;" direction="ltr">update("Label = ( i %2)")</text></g><g stroke-linecap="round" transform="translate(212.38227537753482 392.81943297549276) rotate(0 54.253107077371624 42.67094452979242)"><path d="M17.67 -1.68 L84.05 3.27 L95.29 1.95 L100.37 5.06 L103.68 12.26 L111.78 20.47 L111.49 66.56 L105.83 80.03 L93.05 81.32 L89.61 82.8 L18.35 86.17 L9.17 83.01 L2.37 77.92 L1.27 69.71 L0.76 15.2 L2.29 11.45 L6.85 5.5 L18.66 3.3" stroke="none" stroke-width="0" fill="var(--bg-1000, #192d48)"></path><path d="M21.34 0 M21.34 0 C47.39 0.39, 71.36 -3.01, 87.17 0 M21.34 0 C38.87 -0.77, 59.15 1.68, 87.17 0 M87.17 0 C103.43 0.28, 111.14 5.09, 108.51 21.34 M87.17 0 C97.9 -1.6, 106.93 3.17, 108.51 21.34 M108.51 21.34 C111.88 32.74, 108.02 47.58, 108.51 64.01 M108.51 21.34 C109.4 32.42, 106.77 40.55, 108.51 64.01 M108.51 64.01 C109.21 74.82, 102.76 89.14, 87.17 85.34 M108.51 64.01 C109.19 75.67, 105.3 85.36, 87.17 85.34 M87.17 85.34 C71.63 86.12, 64.22 88.86, 21.34 85.34 M87.17 85.34 C73.7 85, 58.52 84.73, 21.34 85.34 M21.34 85.34 C4.94 86.53, 2.05 81.53, 0 64.01 M21.34 85.34 C7.25 81.97, -2.89 76, 0 64.01 M0 64.01 C0.09 52.31, 0.09 35.93, 0 21.34 M0 64.01 C-0.46 45.09, -0.06 30.97, 0 21.34 M0 21.34 C0.54 4.36, 9.07 -3.97, 21.34 0 M0 21.34 C2.29 8.68, 6.52 -2.4, 21.34 0" stroke="var(--fg, #fff)" stroke-width="4" fill="none"></path></g><g transform="translate(217.38227537753482 419.4903775052852) rotate(0 49.253107077371624 16)"><text x="49.253107077371574" y="23" font-family="Virgil, Segoe UI Emoji" font-size="25.69727325775908px" fill="var(--fg, #fff)" text-anchor="middle" style="white-space: pre;" direction="ltr">t1</text></g><g stroke-linecap="round" transform="translate(80.71184774598623 573.2566463826316) rotate(0 153.61543379275963 53.76540182746598)"><path d="M0 0 C0 0, 0 0, 0 0 M0 0 C0 0, 0 0, 0 0 M-1.03 26.89 C6.04 20.29, 10.68 11.42, 25.25 0.12 M0.15 23.62 C9.61 13.41, 16.62 6.07, 22.69 0.35 M-0.12 52.03 C15.63 27.5, 33.13 15.55, 42.05 2.44 M-1.29 50.21 C15.86 29.87, 33.66 13.39, 43.08 1.37 M-0.32 72.27 C15.62 57.47, 28.79 42.82, 66.39 -0.52 M-1 73.59 C23.33 49.06, 44.53 23.94, 62.21 0.3 M-2.85 94.35 C37.16 62.05, 66.09 17.18, 83.81 -1.49 M-0.83 98.24 C26.75 67.15, 57.53 32.54, 86.06 -0.15 M7.56 114.47 C42.77 70, 80.27 31.08, 105.56 -3.41 M9.12 111.73 C34.81 82.35, 59.17 53.51, 105.02 -1.36 M29.34 113.66 C64.53 71.03, 108.57 25.17, 122.93 2.29 M28.52 112.48 C54.67 83.38, 79.91 56.11, 127.71 1.36 M45.91 114.33 C73.12 89.83, 95.25 59.55, 144.93 -2.28 M48.24 114.9 C84.1 73.17, 120.51 30.87, 150.12 1.31 M70.2 114.87 C96.84 79.54, 124.54 47.8, 173.3 4.04 M70.32 112.45 C87.48 91.17, 108.9 68.57, 170.14 -1.59 M93.22 111.15 C128.47 70.03, 168.63 26.01, 192.16 3.41 M92.04 115.65 C123.64 76.51, 154.58 42.12, 188.71 1.7 M113.64 114.61 C151.39 74.24, 183.83 34.52, 210.34 0.81 M111.04 114.67 C143.56 80.08, 171.91 45.77, 211.68 -0.43 M136.89 113.71 C167.79 79.61, 208.64 37.43, 232.42 -3.03 M135.86 113.27 C161.41 80.74, 189.53 46.9, 232.28 1.25 M156.79 115.93 C192.89 71.84, 233.89 26.67, 253.65 1.4 M155.12 115.31 C193.08 70.54, 232.5 23.46, 253.63 -1.63 M173.86 113.55 C211.68 70.27, 256.26 25.64, 279.04 -2.59 M175.32 115.04 C211.69 72.26, 249.68 30.57, 275.23 -1.63 M198.35 112.61 C221.22 88.29, 244.99 59.44, 294.31 3.09 M199.32 114.54 C236.88 70.8, 269.96 30.8, 295.49 -1.9 M221.21 113.96 C242.53 87.95, 256.9 65.53, 312.28 1.57 M220.92 113.26 C246.35 82.16, 272.4 48.63, 313.6 6.52 M241.14 110.2 C268.09 88.99, 292.67 53.8, 316.66 29.86 M239.27 113.52 C255.81 97.02, 266.83 77.09, 312.79 30 M259.53 114.73 C280.04 99.2, 293.59 75.17, 311.01 51.98 M261.44 113.98 C277.56 95.06, 295.01 80.46, 312.84 54.09 M283.51 110.72 C290.77 102.3, 296.86 100.67, 312.63 76.67 M284.87 115.17 C289.58 107.44, 295.43 97.57, 311.4 77.55" stroke="var(--bg-1000, #192d48)" stroke-width="2" fill="none"></path><path d="M0.21 -2.68 C114.17 -4.93, 231.72 0.67, 304.67 -1.99 M0.43 0.74 C78.63 3.39, 155.66 2.77, 308.15 0.76 M309.28 2.61 C303.88 30.45, 307.09 64.43, 306.21 110.28 M306.5 -1.5 C308.15 38.97, 306.71 75.46, 309.23 107.06 M305.45 107.02 C210.67 104.63, 111.78 107.1, 1.59 106.34 M306.11 108.54 C223.93 105.63, 140.04 106.77, 1.32 107.27 M-1.76 106.22 C-2.88 73.44, -0.64 42.39, -3.94 -2.61 M1.69 106.97 C-2.97 78.14, -1.64 51.38, -1.67 -0.68" stroke="var(--fg, #fff)" stroke-width="4" fill="none"></path></g><g transform="translate(85.71184774598623 610.5220482100976) rotate(0 148.61543379275963 16.5)"><text x="148.61543379275983" y="23" font-family="Virgil, Segoe UI Emoji" font-size="26.098320080679784px" fill="var(--fg, #fff)" text-anchor="middle" style="white-space: pre;" direction="ltr">table</text></g><g stroke-linecap="round" transform="translate(298.9433159435175 887.8024788157711) rotate(0 212.13559904714475 53.76540182746601)"><path d="M0 0 C0 0, 0 0, 0 0 M0 0 C0 0, 0 0, 0 0 M2.43 26.24 C9.84 16.04, 12.86 11.76, 19.21 2.06 M1.95 25.83 C3.93 16.7, 10.35 12.16, 22.51 -1.54 M0.76 46.29 C15.16 30.57, 27.28 18.51, 45.47 0.01 M-0.11 47.75 C16 32.26, 31.07 17.29, 40.59 -1.51 M-3.32 72.89 C14.46 55.45, 28.81 35.77, 64.87 3.74 M1.11 73.2 C18.53 51.01, 34.98 28.64, 63.26 1.62 M3.59 96.62 C25.33 69.1, 51.69 38.23, 86.6 3.34 M0.18 99.01 C17.99 75.7, 40.69 53.03, 84.43 -0.58 M4.47 112.54 C38.13 84.91, 66.86 51.99, 106.56 1.71 M6.94 113.57 C29.78 89.64, 48.99 64.96, 105.9 -0.19 M30.36 115.51 C54.69 77.02, 78.63 45.63, 125.71 4.29 M28.46 112.61 C51.46 91.58, 72.92 68.45, 127.22 1.31 M50.35 116.79 C86.42 74.6, 116.52 27.41, 147.71 -2.97 M50.55 112.4 C74.47 79.84, 102.29 51.16, 146.8 -0.43 M72.04 110.6 C108.44 67.06, 152.13 22.79, 169.95 3.91 M69.66 112.7 C105.34 75.19, 141.75 33.14, 168.44 1.32 M90.08 111.68 C129.08 67.99, 165.96 23.55, 189.21 0.96 M93 114.88 C114.75 91.47, 131.52 67.15, 190.52 -1.07 M115.8 117.3 C134.45 87.42, 159.53 64.7, 211.99 1.98 M111.62 112.42 C136.4 89.94, 155.7 62.69, 211.81 0.62 M136.3 116.75 C166.17 78.36, 202.61 38.56, 233.51 -0.44 M134.99 112.91 C173.51 66.43, 214.87 19.54, 233.95 -0.05 M152.04 117.37 C191.72 73.6, 228.33 24.85, 256.68 2.06 M156.16 112.55 C181.31 80.71, 211.06 45.73, 255.98 1.38 M179.2 110.27 C206.98 77.58, 243.27 39.3, 279.17 -1.39 M177.53 114.41 C211.88 71.89, 251.08 31.36, 276.84 1.68 M196.68 115.36 C216.66 83.28, 244.81 64.62, 296.35 -3.84 M197.4 113.9 C224.71 82.85, 250.27 53.64, 297.85 -0.49 M221.11 114.3 C254.11 73.29, 289.13 30.61, 320.3 0.41 M220.49 112.3 C250.69 80.22, 278.53 48.72, 317.22 0.89 M237.81 111.56 C265.82 85.2, 285.26 57.97, 342.83 -3.15 M240.37 114.26 C259.24 90.55, 280.05 68.13, 340.56 0.68 M259.86 115.38 C290.21 77.48, 328.51 39.93, 361.81 -3.51 M262.02 113.26 C283.19 88.81, 304.72 63.7, 358.7 0.89 M283.02 110.77 C320.11 70.2, 357.86 20.8, 378.8 -2.11 M284.32 113.16 C319.15 69.49, 356.93 25.96, 380.84 1.08 M304.79 112.53 C340.86 71.05, 372.53 33.99, 406.11 -3.36 M302.53 113.69 C335.93 76.53, 367.47 35.51, 401.11 0.46 M326.73 115.01 C343.73 90.54, 366.75 68.82, 424.42 3.34 M326.13 112.66 C348.31 84.98, 377.71 54.29, 423.66 0.34 M344.09 110.06 C375.14 83.21, 395.99 57.4, 439.94 11.96 M347.99 112.52 C374.56 84.47, 398.4 54.93, 435.38 8.97 M368.85 112.58 C385.23 94.7, 401.47 73.76, 439.18 34.7 M366.88 114.3 C385.75 92.02, 404.08 69.55, 436.08 32.88 M387.39 114.5 C399.03 98.61, 410.69 84.92, 439.77 57.92 M388.62 112.16 C406.27 93.37, 424.69 69.56, 436.91 57.38 M410.8 114.52 C417.96 104.65, 424.05 100.6, 434.63 86.12 M407.92 115.61 C416.88 107.29, 423.36 98.55, 435.95 82.96" stroke="var(--bg-1000, #192d48)" stroke-width="2" fill="none"></path><path d="M1.06 0.18 C153.62 -2.03, 309.82 -4.06, 424.83 -1.5 M-0.49 -0.34 C153.33 -1, 306.5 -1.9, 424.34 0.11 M424.85 0.97 C425.83 27.99, 422.27 57.6, 421.18 108.26 M425.43 1.83 C423.57 30.68, 420.24 58.62, 425.89 106.12 M422.85 106.05 C271.32 106.56, 121.39 108.22, 1.99 105.54 M424.13 106.66 C267.04 104.09, 111.06 102.86, 0.51 107.1 M-2.71 105.73 C-1.49 84.76, 3.88 58.16, -1.75 0.82 M1.21 107.96 C3.44 83.01, 2.06 57.61, -1.87 -1.78" stroke="var(--fg, #fff)" stroke-width="4" fill="none"></path></g><g transform="translate(303.9433159435175 925.0678806432371) rotate(0 207.13559904714475 16.5)"><text x="207.1355990471447" y="23" font-family="Virgil, Segoe UI Emoji" font-size="26.164496721744587px" fill="var(--fg, #fff)" text-anchor="middle" style="white-space: pre;" direction="ltr">table</text></g><g stroke-linecap="round" transform="translate(10 648.8451001542475) rotate(0 54.253107077371624 42.67094452979242)"><path d="M21.12 -2.85 L85.05 -0.52 L97.38 0.82 L100.23 9.2 L110.14 10.62 L108.85 17.35 L109.31 70.62 L103.72 77.26 L98.46 80.04 L89.16 86.7 L20.82 83.26 L8.5 82.66 L4.64 83.83 L3.73 68.95 L2.81 15.14 L0.49 4.85 L5.92 -0.57 L18.45 0.19" stroke="none" stroke-width="0" fill="var(--bg-1000, #192d48)"></path><path d="M21.34 0 M21.34 0 C45.48 -0.68, 59.37 -0.31, 87.17 0 M21.34 0 C45.72 -0.36, 68.86 0.88, 87.17 0 M87.17 0 C105.15 -0.52, 109.45 4.57, 108.51 21.34 M87.17 0 C97.14 -3.19, 108.03 11.17, 108.51 21.34 M108.51 21.34 C109.5 35.11, 109.67 53.96, 108.51 64.01 M108.51 21.34 C107.42 32.69, 107.85 46.47, 108.51 64.01 M108.51 64.01 C105.03 75.27, 99.54 87.27, 87.17 85.34 M108.51 64.01 C105.59 75.05, 97.57 82.81, 87.17 85.34 M87.17 85.34 C67.86 85.26, 56.27 85.2, 21.34 85.34 M87.17 85.34 C69.5 82.96, 49.13 84.13, 21.34 85.34 M21.34 85.34 C5.29 85.73, -3.4 81.43, 0 64.01 M21.34 85.34 C9.12 88.89, 1.39 78.19, 0 64.01 M0 64.01 C-2.74 48.92, -1.47 38.16, 0 21.34 M0 64.01 C1.48 54.35, 1.71 44.6, 0 21.34 M0 21.34 C2.78 8.37, 4.68 0.33, 21.34 0 M0 21.34 C-3.95 9.59, 4.54 -1.42, 21.34 0" stroke="var(--fg, #fff)" stroke-width="4" fill="none"></path></g><g transform="translate(15 675.5160446840399) rotate(0 49.253107077371624 16)"><text x="49.253107077371574" y="23" font-family="Virgil, Segoe UI Emoji" font-size="25.69727325775908px" fill="var(--fg, #fff)" text-anchor="middle" style="white-space: pre;" direction="ltr">t2</text></g><g stroke-linecap="round" transform="translate(217.25893721233479 895.1176110909257) rotate(0 54.253107077371624 42.67094452979245)"><path d="M24.25 -1.9 L90.47 -0.44 L100.28 -1.62 L99.48 5.43 L103.24 14.56 L110.97 18.89 L108.27 69.47 L103 79.98 L96.2 81.06 L89.15 89.26 L19.51 88.46 L13.99 86.46 L7.69 82 L-3.24 70.11 L-1.1 13.79 L4.36 10.29 L8.96 0.82 L17.7 3.55" stroke="none" stroke-width="0" fill="var(--bg-1000, #192d48)"></path><path d="M21.34 0 M21.34 0 C45.05 0.19, 63.88 -2.5, 87.17 0 M21.34 0 C44.84 -0.04, 67.46 1.01, 87.17 0 M87.17 0 C100.34 1.94, 111.77 6, 108.51 21.34 M87.17 0 C101.79 -1.07, 106.91 6.05, 108.51 21.34 M108.51 21.34 C105.4 30.94, 112.19 45.1, 108.51 64.01 M108.51 21.34 C107.61 38.98, 109.13 53.23, 108.51 64.01 M108.51 64.01 C106.08 81.97, 101.44 85.22, 87.17 85.34 M108.51 64.01 C109.72 74.96, 104.19 86.79, 87.17 85.34 M87.17 85.34 C66.43 86.33, 45.1 82.92, 21.34 85.34 M87.17 85.34 C65.4 83.1, 47.09 85.33, 21.34 85.34 M21.34 85.34 C10.38 85.15, -0.29 79.46, 0 64.01 M21.34 85.34 C3.56 86.18, -1.01 73.72, 0 64.01 M0 64.01 C2.31 51.89, -4.35 34.28, 0 21.34 M0 64.01 C1.01 47.58, -0.75 30.1, 0 21.34 M0 21.34 C-3.39 5.99, 6.07 2.03, 21.34 0 M0 21.34 C4.35 2.76, 10.25 2.65, 21.34 0" stroke="var(--fg, #fff)" stroke-width="4" fill="none"></path></g><g transform="translate(222.25893721233479 921.7885556207182) rotate(0 49.253107077371624 16)"><text x="49.253107077371574" y="23" font-family="Virgil, Segoe UI Emoji" font-size="25.69727325775908px" fill="var(--fg, #fff)" text-anchor="middle" style="white-space: pre;" direction="ltr">t3</text></g><g transform="translate(582.2468385697184 781.6287470427899) rotate(0 137 22.5)"><text x="137" y="32" font-family="Virgil, Segoe UI Emoji" font-size="36px" fill="var(--fg, #fff)" text-anchor="middle" style="white-space: pre;" direction="ltr">natural_join(...)</text></g><g stroke-linecap="round"><g transform="translate(397.19959428344737 440.634996952577) rotate(0 -76.68539784564018 65.41104951620116)"><path d="M0.51 0.95 C-24.97 22, -126.53 107.24, -152.13 128.13 M-2.66 -1 C-28.5 20.37, -128.49 110.25, -153.88 131.82" stroke="var(--fg, #fff)" stroke-width="4" fill="none"></path></g><g transform="translate(397.19959428344737 440.634996952577) rotate(0 -76.68539784564018 65.41104951620116)"><path d="M-138.08 106.81 C-143.65 114.05, -151.03 119.56, -157.76 128.34 M-138.57 104.42 C-145.19 114.23, -150.35 122.11, -153.07 130.48" stroke="var(--fg, #fff)" stroke-width="4" fill="none"></path></g><g transform="translate(397.19959428344737 440.634996952577) rotate(0 -76.68539784564018 65.41104951620116)"><path d="M-124.55 122.24 C-134.76 124.48, -146.56 124.94, -157.76 128.34 M-125.04 119.85 C-136.45 124.23, -146.34 126.72, -153.07 130.48" stroke="var(--fg, #fff)" stroke-width="4" fill="none"></path></g></g><g stroke-linecap="round"><g transform="translate(243.858581860125 686.0459827960167) rotate(0 103.3170443416825 92.50545148361198)"><path d="M-2.66 -2.33 C32.4 28.94, 174.46 155.84, 209.29 187.34 M1.1 2.58 C35.9 32.99, 172.13 151.56, 207.25 182.77" stroke="var(--fg, #fff)" stroke-width="4" fill="none"></path></g><g transform="translate(243.858581860125 686.0459827960167) rotate(0 103.3170443416825 92.50545148361198)"><path d="M175.97 172.39 C187.78 171.58, 194.17 180.82, 209.46 184.72 M180.51 172.22 C190.93 177.37, 200.68 182.82, 207 184" stroke="var(--fg, #fff)" stroke-width="4" fill="none"></path></g><g transform="translate(243.858581860125 686.0459827960167) rotate(0 103.3170443416825 92.50545148361198)"><path d="M189.51 156.97 C197.73 159.96, 200.56 173.26, 209.46 184.72 M194.06 156.8 C198.82 167.91, 203.17 179.5, 207 184" stroke="var(--fg, #fff)" stroke-width="4" fill="none"></path></g></g><g stroke-linecap="round"><g transform="translate(523.1397607473591 438.8501138139795) rotate(0 1.274345357024231 214.93664696604316)"><path d="M-0.39 -0.62 C0.08 71.25, 0.54 361.4, 1.42 433.3 M-4.05 -3.43 C-2.59 67.34, 5.3 355.86, 6.6 428.57" stroke="var(--fg, #fff)" stroke-width="4" fill="none"></path></g><g transform="translate(523.1397607473591 438.8501138139795) rotate(0 1.274345357024231 214.93664696604316)"><path d="M-5.2 397.42 C-0.46 409.38, -1.33 416.8, 7.54 431.81 M-4.44 400.26 C-3.56 407.14, 0.48 414.37, 6.64 428.33" stroke="var(--fg, #fff)" stroke-width="4" fill="none"></path></g><g transform="translate(523.1397607473591 438.8501138139795) rotate(0 1.274345357024231 214.93664696604316)"><path d="M15.31 396.94 C14.94 408.96, 8.95 416.5, 7.54 431.81 M16.08 399.78 C11.27 406.77, 9.63 414.12, 6.64 428.33" stroke="var(--fg, #fff)" stroke-width="4" fill="none"></path></g></g></svg>