<?xml version="1.0" encoding="utf-8"?>
<!-- Generator: Adobe Illustrator 27.5.0, SVG Export Plug-In . SVG Version: 6.00 Build 0)  -->
<svg version="1.2" baseProfile="tiny" id="Layer_1" xmlns="http://www.w3.org/2000/svg" xmlns:xlink="http://www.w3.org/1999/xlink"
	 x="0px" y="0px" viewBox="0 0 900 250" overflow="visible" xml:space="preserve">
<rect id="XMLID_31_" fill="#0D1117" width="900" height="250"/>
<g>
	<g>
		<path fill="#FFFFFF" d="M151.7,109.4c2.6,1.3,4.8,3.4,6.3,5.9c1.5,2.8,2.3,5.9,2.2,9c0.1,3.1-0.7,6.2-2.2,8.9
			c-1.5,2.5-3.6,4.5-6.3,5.8c-3,1.4-6.2,2.1-9.5,2h-11v-33.8h11C145.5,107.2,148.7,108,151.7,109.4z M151.3,133.4
			c2.1-2.1,3.2-5.2,3.2-9s-1.1-7-3.2-9.2c-2.1-2.2-5.1-3.3-9.1-3.3h-5.5v24.8h5.5C146.2,136.6,149.2,135.6,151.3,133.4L151.3,133.4z
			"/>
		<path fill="#FFFFFF" d="M190.3,129.8h-20.4c0.1,2,0.9,3.8,2.4,5.2c1.4,1.3,3.3,2,5.3,1.9c3,0,5.1-1.2,6.3-3.7h6
			c-0.8,2.4-2.3,4.6-4.4,6.1c-2.3,1.6-5.1,2.5-7.9,2.4c-2.4,0-4.8-0.6-6.9-1.7c-2-1.1-3.7-2.8-4.8-4.9c-1.2-2.2-1.8-4.7-1.7-7.3
			c-0.1-2.5,0.5-5,1.7-7.3c1.1-2,2.7-3.7,4.7-4.8c2.1-1.2,4.5-1.7,7-1.7c2.4,0,4.7,0.5,6.8,1.7c2,1.1,3.6,2.7,4.6,4.6
			c1.1,2.1,1.7,4.5,1.7,6.9C190.6,128,190.5,128.9,190.3,129.8z M184.7,125.4c0-1.9-0.8-3.7-2.2-4.9c-1.5-1.3-3.4-1.9-5.3-1.9
			c-1.8,0-3.6,0.6-4.9,1.8c-1.4,1.3-2.3,3-2.4,4.9L184.7,125.4z"/>
		<path fill="#FFFFFF" d="M220.8,129.8h-20.5c0.1,2,0.9,3.8,2.4,5.2c1.4,1.3,3.3,2,5.3,1.9c3,0,5.1-1.2,6.3-3.7h6
			c-0.8,2.4-2.3,4.6-4.4,6.1c-2.3,1.6-5.1,2.5-7.9,2.4c-2.4,0-4.8-0.6-6.9-1.7c-2-1.1-3.7-2.8-4.8-4.9c-1.2-2.2-1.8-4.7-1.7-7.3
			c-0.1-2.5,0.5-5,1.7-7.3c1.1-2,2.7-3.7,4.7-4.8c2.1-1.2,4.5-1.7,7-1.7c2.4,0,4.7,0.5,6.8,1.7c2,1.1,3.6,2.7,4.6,4.6
			c1.1,2.1,1.7,4.5,1.7,6.9C221,128,220.9,128.9,220.8,129.8z M215.2,125.4c0-1.9-0.8-3.7-2.2-4.9c-1.5-1.3-3.4-1.9-5.3-1.9
			c-1.8,0-3.6,0.6-4.9,1.8c-1.4,1.3-2.3,3-2.4,4.9L215.2,125.4z"/>
		<path fill="#FFFFFF" d="M235.4,115.2c1.7-0.9,3.6-1.3,5.5-1.3c4.6-0.1,8.8,2.5,10.9,6.6c1.1,2.2,1.7,4.7,1.7,7.1
			c0,2.5-0.5,5-1.7,7.2c-1,2-2.6,3.8-4.6,5c-1.9,1.2-4.1,1.8-6.4,1.8c-1.9,0-3.8-0.4-5.5-1.3c-1.5-0.8-2.8-1.8-3.9-3.1v16.6h-5.5
			v-39.5h5.5v3.9C232.6,117,233.9,115.9,235.4,115.2z M246.7,122.8c-0.7-1.3-1.7-2.3-3-3.1c-1.2-0.7-2.6-1-4-1s-2.8,0.4-4,1.1
			c-1.3,0.7-2.3,1.8-3,3.1c-0.8,1.5-1.2,3.1-1.1,4.8c0,1.7,0.4,3.3,1.1,4.8c1.4,2.6,4.1,4.2,7,4.2c1.4,0,2.8-0.4,4-1.1
			c1.3-0.8,2.3-1.9,3-3.2c0.8-1.5,1.2-3.2,1.1-4.9C247.9,126,247.5,124.2,246.7,122.8z"/>
		<path fill="#FFFFFF" d="M277.9,115.2c1.6,0.9,3,2.2,3.8,3.9c1,1.9,1.5,4.1,1.4,6.2v15.8h-5.5v-15c0-2.4-0.6-4.2-1.8-5.5
			c-2.8-2.6-7.1-2.6-9.8,0c-1.2,1.3-1.8,3.1-1.8,5.5v15h-5.5v-36h5.5v12.4c1-1.1,2.2-2,3.6-2.6c1.5-0.6,3.1-0.9,4.7-0.9
			C274.3,113.9,276.2,114.2,277.9,115.2z"/>
		<path fill="#FFFFFF" d="M289.4,120.5c2.1-4.1,6.4-6.6,11-6.6c1.9,0,3.8,0.4,5.5,1.3c1.5,0.7,2.8,1.8,3.8,3.1v-3.9h5.6v26.8h-5.6
			v-4c-1,1.3-2.3,2.4-3.8,3.2c-3.8,1.9-8.3,1.7-11.9-0.5c-1.9-1.2-3.5-2.9-4.5-5c-1.1-2.2-1.7-4.7-1.7-7.2
			C287.7,125.2,288.3,122.7,289.4,120.5z M308.5,122.9c-0.7-1.3-1.7-2.4-3-3.1c-1.2-0.7-2.6-1.1-4-1.1s-2.8,0.4-4,1
			c-1.3,0.7-2.3,1.8-3,3.1c-0.8,1.5-1.2,3.1-1.1,4.8c0,1.7,0.4,3.4,1.1,4.9c0.7,1.3,1.7,2.4,3,3.2c1.2,0.7,2.6,1.1,4,1.1
			s2.8-0.3,4-1c1.3-0.8,2.3-1.9,3-3.2c0.8-1.5,1.2-3.2,1.1-4.8C309.7,126,309.3,124.4,308.5,122.9z"/>
		<path fill="#FFFFFF" d="M333.3,136.2l7.6-21.8h5.9l-10.2,26.8H330l-10.2-26.8h5.9L333.3,136.2z"/>
		<path fill="#FFFFFF" d="M375.2,129.8h-20.5c0.1,2,0.9,3.8,2.4,5.2c1.4,1.3,3.3,2,5.3,1.9c3,0,5.1-1.2,6.3-3.7h6
			c-0.8,2.4-2.3,4.6-4.4,6.1c-2.3,1.6-5.1,2.5-7.9,2.4c-2.4,0-4.8-0.6-6.9-1.7c-2-1.1-3.7-2.8-4.8-4.9c-1.2-2.2-1.8-4.7-1.7-7.3
			c-0.1-2.5,0.5-5,1.7-7.3c1.1-2,2.7-3.7,4.7-4.8c2.1-1.2,4.5-1.7,7-1.7c2.4,0,4.7,0.5,6.8,1.7c2,1.1,3.6,2.7,4.6,4.6
			c1.1,2.1,1.7,4.5,1.7,6.9C375.4,128,375.4,128.9,375.2,129.8z M369.6,125.4c0-1.9-0.8-3.7-2.2-4.9c-1.5-1.3-3.4-1.9-5.3-1.9
			c-1.8,0-3.6,0.6-4.9,1.8c-1.4,1.3-2.3,3-2.4,4.9L369.6,125.4z"/>
		<path fill="#FFFFFF" d="M399.9,115.2c1.7,0.9,3,2.2,3.9,3.9c1,1.9,1.5,4.1,1.4,6.2v15.8h-5.5v-15c0-2.4-0.6-4.2-1.8-5.5
			c-1.3-1.3-3.1-2-4.9-1.9c-1.8-0.1-3.6,0.6-4.9,1.9c-1.2,1.3-1.8,3.1-1.8,5.5v15h-5.5v-26.8h5.5v3.1c0.9-1.1,2.1-2,3.5-2.6
			s3-0.9,4.5-0.9C396.3,113.9,398.2,114.2,399.9,115.2z"/>
		<rect x="49.7" y="96.2" fill="#65C4D8" width="19" height="39"/>
		<rect x="49.7" y="134.2" fill="#FAD45B" width="20" height="19"/>
		<rect x="68.7" y="134.2" fill="#9ECD6F" width="19" height="19"/>
		<rect x="87.7" y="115.2" fill="#EE5E82" width="19" height="19"/>
		<rect x="67.7" y="96.2" fill="#FFFFFF" width="20" height="19"/>
	</g>
	<path fill="#999999" d="M454.8,120l-1.8,8.5h6.6v2.8h-7.2l-2.1,9.8h-3.1l2.1-9.8h-10.2l-2.1,9.8h-3.1l2.1-9.8h-7.3v-2.8h7.9
		l1.8-8.5h-7.2v-2.8h7.8l2.1-10h3.1l-2.1,10h10.2l2.1-10h3.1l-2.1,10h6.7v2.8C462.1,119.9,454.8,119.9,454.8,120z M451.7,120h-10.2
		l-1.8,8.5h10.2L451.7,120z"/>
	<path fill="#999999" d="M475.3,116.6c1.4-2.5,3.3-4.4,5.6-5.8c2.4-1.4,5.1-2.1,8-2.1c3.6,0,6.7,0.8,9.2,2.5
		c2.6,1.7,4.4,4.1,5.6,7.2h-3.8c-0.9-2.2-2.3-3.9-4.2-5.1c-1.9-1.2-4.2-1.8-6.8-1.8c-2.4,0-4.5,0.6-6.4,1.7s-3.4,2.7-4.4,4.8
		c-1.1,2.1-1.6,4.5-1.6,7.2s0.5,5.1,1.6,7.2s2.5,3.6,4.4,4.7s4,1.7,6.4,1.7c2.7,0,4.9-0.6,6.8-1.8s3.3-2.9,4.2-5h3.8
		c-1.2,3.1-3,5.4-5.6,7.1c-2.6,1.7-5.6,2.5-9.2,2.5c-2.9,0-5.6-0.7-8-2.1s-4.3-3.3-5.6-5.8c-1.4-2.5-2.1-5.3-2.1-8.5
		C473.2,121.9,473.9,119.1,475.3,116.6z"/>
	<path fill="#999999" d="M513.5,139.9c-1.9-1.1-3.4-2.6-4.5-4.5s-1.6-4.2-1.6-6.8s0.6-4.9,1.7-6.8s2.6-3.4,4.5-4.5
		c1.9-1.1,4-1.6,6.4-1.6s4.5,0.5,6.4,1.6s3.4,2.6,4.5,4.5s1.6,4.2,1.6,6.8s-0.6,4.8-1.7,6.8c-1.1,2-2.6,3.5-4.5,4.5
		c-1.9,1.1-4.1,1.6-6.4,1.6S515.4,140.9,513.5,139.9z M524.4,137.6c1.4-0.8,2.5-1.9,3.4-3.4s1.3-3.4,1.3-5.6c0-2.2-0.4-4.1-1.3-5.6
		c-0.9-1.5-2-2.6-3.4-3.4s-2.9-1.1-4.6-1.1c-1.7,0-3.2,0.4-4.6,1.1c-1.4,0.8-2.5,1.9-3.4,3.4c-0.8,1.5-1.3,3.4-1.3,5.6
		s0.4,4.1,1.3,5.6c0.8,1.5,2,2.6,3.4,3.4c1.4,0.8,2.9,1.1,4.6,1.1S523,138.4,524.4,137.6z"/>
	<path fill="#999999" d="M574.1,118.4c1.9,1.9,2.8,4.5,2.8,8.1v14.7h-3.2v-14.3c0-2.7-0.7-4.8-2-6.2c-1.3-1.4-3.1-2.2-5.4-2.2
		c-2.4,0-4.2,0.8-5.6,2.3c-1.4,1.6-2.1,3.8-2.1,6.8v13.6h-3.2v-14.3c0-2.7-0.7-4.8-2-6.2c-1.3-1.4-3.1-2.2-5.4-2.2
		c-2.4,0-4.2,0.8-5.7,2.3c-1.4,1.6-2.1,3.8-2.1,6.8v13.6H537v-25.1h3.2v4.3c0.8-1.6,1.9-2.7,3.4-3.6c1.5-0.8,3.1-1.2,4.9-1.2
		c2.2,0,4.1,0.5,5.7,1.6c1.6,1,2.8,2.6,3.6,4.6c0.7-2,1.8-3.5,3.5-4.6c1.6-1.1,3.5-1.6,5.6-1.6C569.9,115.6,572.3,116.5,574.1,118.4
		z"/>
	<path fill="#999999" d="M620.3,118.4c1.9,1.9,2.8,4.5,2.8,8.1v14.7h-3.2v-14.3c0-2.7-0.7-4.8-2-6.2c-1.3-1.4-3.1-2.2-5.4-2.2
		c-2.4,0-4.2,0.8-5.6,2.3c-1.4,1.6-2.1,3.8-2.1,6.8v13.6h-3.2v-14.3c0-2.7-0.7-4.8-2-6.2c-1.3-1.4-3.1-2.2-5.4-2.2
		c-2.4,0-4.2,0.8-5.7,2.3c-1.4,1.6-2.1,3.8-2.1,6.8v13.6h-3.2v-25.1h3.2v4.3c0.8-1.6,1.9-2.7,3.4-3.6c1.5-0.8,3.1-1.2,4.9-1.2
		c2.2,0,4.1,0.5,5.7,1.6c1.6,1,2.8,2.6,3.6,4.6c0.7-2,1.8-3.5,3.5-4.6c1.6-1.1,3.5-1.6,5.6-1.6C616.1,115.6,618.5,116.5,620.3,118.4
		z"/>
	<path fill="#999999" d="M650.2,116.1v25.1H647v-4.4c-0.7,1.6-1.9,2.8-3.4,3.6s-3.2,1.2-5.1,1.2c-3,0-5.5-0.9-7.3-2.8
		c-1.9-1.9-2.8-4.5-2.8-8.1V116h3.2v14.3c0,2.7,0.7,4.8,2,6.2c1.4,1.4,3.2,2.2,5.6,2.2c2.4,0,4.3-0.8,5.8-2.3
		c1.4-1.5,2.2-3.8,2.2-6.8V116L650.2,116.1L650.2,116.1z"/>
	<path fill="#999999" d="M675.9,118.4c1.9,1.9,2.8,4.5,2.8,8.1v14.7h-3.2v-14.3c0-2.7-0.7-4.8-2-6.2c-1.4-1.4-3.2-2.2-5.6-2.2
		c-2.4,0-4.3,0.8-5.8,2.3c-1.4,1.5-2.2,3.8-2.2,6.8v13.7h-3.2v-25.1h3.2v4.3c0.8-1.5,1.9-2.7,3.4-3.5s3.2-1.2,5.1-1.2
		C671.6,115.6,674,116.5,675.9,118.4z"/>
	<path fill="#999999" d="M685.6,110.7c-0.5-0.5-0.7-1-0.7-1.7s0.2-1.2,0.7-1.7s1-0.7,1.7-0.7c0.6,0,1.2,0.2,1.7,0.7
		c0.5,0.4,0.7,1,0.7,1.7s-0.2,1.2-0.7,1.7s-1,0.7-1.7,0.7C686.6,111.2,686.1,111.1,685.6,110.7z M688.9,116.1v25.1h-3.2v-25.1H688.9
		z"/>
	<path fill="#999999" d="M701.3,118.8v15.6c0,1.5,0.3,2.6,0.9,3.2c0.6,0.6,1.6,0.9,3.1,0.9h2.9v2.8h-3.4c-2.3,0-4-0.5-5.1-1.6
		s-1.7-2.8-1.7-5.2v-15.6h-3.5v-2.7h3.5v-6.3h3.3v6.3h6.9v2.7L701.3,118.8L701.3,118.8z"/>
	<path fill="#999999" d="M735.4,116.1l-14.9,36.9h-3.4l4.9-11.9l-10.3-24.9h3.5l8.7,21.3l8.3-21.4C732.2,116,735.4,116,735.4,116.1z
		"/>
	<path fill="#999999" d="M750.5,116.6c1.4-2.5,3.3-4.4,5.6-5.8c2.4-1.4,5.1-2.1,8-2.1c3.6,0,6.7,0.8,9.2,2.5
		c2.6,1.7,4.4,4.1,5.6,7.2h-3.8c-0.9-2.2-2.3-3.9-4.2-5.1s-4.2-1.8-6.8-1.8c-2.4,0-4.5,0.6-6.4,1.7s-3.4,2.7-4.4,4.8
		c-1.1,2.1-1.6,4.5-1.6,7.2s0.5,5.1,1.6,7.2s2.5,3.6,4.4,4.7s4,1.7,6.4,1.7c2.7,0,4.9-0.6,6.8-1.8c1.9-1.2,3.3-2.9,4.2-5h3.8
		c-1.2,3.1-3,5.4-5.6,7.1c-2.6,1.7-5.6,2.5-9.2,2.5c-2.9,0-5.6-0.7-8-2.1s-4.3-3.3-5.6-5.8c-1.4-2.5-2.1-5.3-2.1-8.5
		C748.4,121.9,749.1,119.1,750.5,116.6z"/>
	<path fill="#999999" d="M788.2,139.9c-1.9-1.1-3.4-2.6-4.5-4.5s-1.6-4.2-1.6-6.8s0.6-4.9,1.7-6.8c1.1-1.9,2.6-3.4,4.5-4.5
		s4-1.6,6.4-1.6s4.5,0.5,6.4,1.6s3.4,2.6,4.5,4.5s1.6,4.2,1.6,6.8s-0.6,4.8-1.7,6.8c-1.1,2-2.6,3.5-4.5,4.5
		c-1.9,1.1-4.1,1.6-6.4,1.6S790,140.9,788.2,139.9z M799.1,137.6c1.4-0.8,2.5-1.9,3.4-3.4s1.3-3.4,1.3-5.6c0-2.2-0.4-4.1-1.3-5.6
		c-0.9-1.5-2-2.6-3.4-3.4s-2.9-1.1-4.6-1.1c-1.7,0-3.2,0.4-4.6,1.1c-1.4,0.8-2.5,1.9-3.4,3.4c-0.8,1.5-1.3,3.4-1.3,5.6
		s0.4,4.1,1.3,5.6c0.8,1.5,2,2.6,3.4,3.4c1.4,0.8,2.9,1.1,4.6,1.1S797.7,138.4,799.1,137.6z"/>
	<path fill="#999999" d="M818.5,116.9c1.5-0.9,3.2-1.3,5.4-1.3v3.4H823c-2.3,0-4.2,0.6-5.6,1.9c-1.4,1.3-2.1,3.4-2.1,6.3v14h-3.2
		v-25.1h3.2v4.5C816,119,817,117.8,818.5,116.9z"/>
	<path fill="#999999" d="M850,129.9h-20.8c0.1,1.9,0.6,3.5,1.4,4.9c0.8,1.3,1.9,2.4,3.3,3.1c1.3,0.7,2.8,1,4.4,1
		c2.1,0,3.8-0.5,5.3-1.5c1.4-1,2.4-2.4,2.8-4.1h3.4c-0.6,2.5-1.9,4.4-3.9,6c-2,1.5-4.5,2.3-7.6,2.3c-2.4,0-4.5-0.5-6.3-1.6
		c-1.9-1.1-3.3-2.6-4.4-4.5c-1.1-1.9-1.6-4.2-1.6-6.8c0-2.6,0.5-4.9,1.6-6.8c1-2,2.5-3.5,4.4-4.5s4-1.6,6.4-1.6s4.5,0.5,6.3,1.6
		c1.8,1,3.2,2.4,4.1,4.2c1,1.8,1.4,3.7,1.4,5.9C850.1,128.4,850.1,129.2,850,129.9z M845.7,122.5c-0.8-1.3-1.8-2.3-3.2-3
		c-1.3-0.7-2.8-1-4.4-1c-2.4,0-4.4,0.8-6.1,2.3c-1.7,1.5-2.6,3.7-2.8,6.5h17.6C846.9,125.4,846.5,123.8,845.7,122.5z"/>
</g>
</svg>
