<?xml version="1.0" encoding="utf-8"?>
<!-- Generator: Adobe Illustrator 25.2.2, SVG Export Plug-In . SVG Version: 6.00 Build 0)  -->
<svg version="1.2" baseProfile="tiny" id="Layer_1" xmlns="http://www.w3.org/2000/svg" xmlns:xlink="http://www.w3.org/1999/xlink"
	 x="0px" y="0px" viewBox="0 0 900 416" overflow="visible" xml:space="preserve">
<rect id="XMLID_31_" x="0.3" y="-0.4" fill="#0D1117" width="899.7" height="416.4"/>
<rect id="XMLID_316_" x="196.3" y="193.4" fill="#5C84C2" width="26.6" height="25.8"/>
<rect id="XMLID_315_" x="196.3" y="166.6" fill="#5C84C2" width="26.6" height="26.8"/>
<rect id="XMLID_314_" x="196.3" y="219.2" fill="#5C84C2" width="26.6" height="26.8"/>
<rect id="XMLID_313_" x="222.9" y="219.4" fill="#35618B" width="26.6" height="26.8"/>
<rect id="XMLID_312_" x="249.5" y="192.9" fill="#35618B" width="26.6" height="26.8"/>
<rect id="XMLID_311_" x="222.9" y="166.4" fill="#35618B" width="26.6" height="26.8"/>
<path id="XMLID_101_" fill="#F0EFEE" d="M343.2,170.4c3.6,2.6,5.4,7.5,5.4,14.5c0,6.9-1.8,11.7-5.3,14.5c-3.5,2.8-8,4.2-13.6,4.2
	h-11v-37.2h10C334.8,166.4,339.6,167.7,343.2,170.4z M327,172.2v25.6h3.3c3.1,0,5.6-0.9,7.3-2.8c1.7-1.9,2.6-5.3,2.6-10.1
	c0-3.4-0.4-6-1.3-7.8c-0.9-1.9-2-3.1-3.5-3.8c-1.4-0.7-3.2-1-5.3-1H327z"/>
<path id="XMLID_104_" fill="#F0EFEE" d="M388.8,166.4l-0.9,5.7H374v9.7h12.1v5.7H374v10.3h14.9v5.8h-23v-37.2H388.8z"/>
<path id="XMLID_106_" fill="#F0EFEE" d="M429.2,166.4l-0.9,5.7h-13.9v9.7h12.1v5.7h-12.1v10.3h14.9v5.8h-23v-37.2H429.2z"/>
<path id="XMLID_108_" fill="#F0EFEE" d="M470.1,169.4c2.8,2,4.1,5,4.1,9c0,4.2-1.4,7.3-4.1,9.4c-2.7,2.1-6.4,3.1-11,3.1h-4.4v12.7
	h-8.2v-37.2h11.9C463.4,166.4,467.3,167.4,470.1,169.4z M463.9,183.5c1.3-1,1.9-2.8,1.9-5.2c0-4.2-2.5-6.3-7.4-6.3h-3.6v13h3.7
	C460.8,185.1,462.6,184.6,463.9,183.5z"/>
<path id="XMLID_111_" fill="#F0EFEE" d="M511.5,203.6v-16.3h-12.7v16.3h-8.2v-37.2h8.2v14.7h12.7v-14.7h8.2v37.2H511.5z"/>
<path id="XMLID_113_" fill="#F0EFEE" d="M559.2,203.6l-2.2-8.3h-12l-2.2,8.3h-8.5l11.8-37.2h9.9l11.8,37.2H559.2z M546.5,189.4h8.9
	l-4.5-17.1L546.5,189.4z"/>
<path id="XMLID_116_" fill="#F0EFEE" d="M609.3,166.4l-11,37.2h-9.9L577,166.4h8.7l7.8,30.6l7.5-30.6H609.3z"/>
<path id="XMLID_118_" fill="#F0EFEE" d="M646.9,166.4l-0.9,5.7h-13.9v9.7h12.1v5.7h-12.1v10.3H647v5.8h-23v-37.2H646.9z"/>
<path id="XMLID_120_" fill="#F0EFEE" d="M693.3,203.6h-10.5l-12.2-29.5c0.3,2.5,0.6,4.9,0.8,7.2c0.2,2.2,0.3,4.9,0.3,7.9v14.5h-7.4
	v-37.2h10.3L687,196c-0.7-4.8-1.1-9.2-1.1-13.2v-16.3h7.4V203.6z"/>
<path id="XMLID_54_" fill="#E9E9E9" d="M248.2,166.4v25.8h-24v-25.8H195v79.8h29.2v-25.8h24v25.8h29.2v-79.8H248.2z M221.6,243.7
	h-24v-23.3h24V243.7z M221.6,217.9h-24v-23.3h24V217.9z M221.6,192.2h-24v-23.3h24V192.2z M224.1,217.9v-23.3h24v23.3H224.1z
	 M274.8,243.7h-24v-23.3h24V243.7z M274.8,217.9h-24v-23.3h24V217.9z M250.7,192.2v-23.3h24v23.3H250.7z"/>
<g>
	<path fill="#999999" d="M337.9,220.4l-1.9,2.2c-1.8-1.4-3.4-2-5.4-2c-4.3,0-7.9,2.9-7.9,11.4c0,8,3.4,11.3,7.8,11.3
		c2.6,0,4.3-1.1,5.9-2.3l1.8,2.2c-1.5,1.6-4.1,3-7.8,3c-6.6,0-11.4-5-11.4-14.2c0-9.4,5.1-14.2,11.4-14.2
		C333.8,217.7,335.7,218.7,337.9,220.4z"/>
	<path fill="#999999" d="M368.4,232c0,9.1-4.6,14.2-11.5,14.2c-6.8,0-11.5-5-11.5-14.2c0-9.1,4.7-14.3,11.5-14.3
		C363.7,217.7,368.4,222.7,368.4,232z M349.1,232.1c0,8,3.2,11.3,7.8,11.3c4.8,0,7.8-3.3,7.8-11.3c0-8-3-11.4-7.8-11.4
		C352.2,220.6,349.1,224,349.1,232.1z"/>
	<path fill="#999999" d="M403.2,245.7h-3.4l-1-12.6c-0.4-4.4-0.7-9.1-0.8-11.4l-6.2,20.8h-3.2l-6.5-20.9c0,3.1-0.3,7.6-0.6,11.6
		l-1,12.4h-3.3l2.3-27.5h4.7l6,20.4l5.8-20.4h4.7L403.2,245.7z"/>
	<path fill="#999999" d="M438.9,245.7h-3.4l-1-12.6c-0.4-4.4-0.7-9.1-0.8-11.4l-6.2,20.8h-3.2l-6.5-20.9c0,3.1-0.3,7.6-0.6,11.6
		l-1,12.4h-3.3l2.3-27.5h4.7l6,20.4l5.8-20.4h4.7L438.9,245.7z"/>
	<path fill="#999999" d="M468.7,237c0,5.4-3.4,9.2-9.5,9.2c-6.2,0-9.4-3.8-9.4-9.2v-18.8h3.4v18.5c0,4.3,1.9,6.6,6,6.6
		c4.1,0,6-2.2,6-6.6v-18.5h3.5V237z"/>
	<path fill="#999999" d="M499.5,245.7h-4.6L483.3,222c0.2,2.2,0.5,5.4,0.5,10.4v13.3h-3.2v-27.5h4.5l11.7,23.7
		c-0.1-0.8-0.4-5-0.4-8.4v-15.4h3.2V245.7z"/>
	<path fill="#999999" d="M515.2,245.7h-3.4v-27.5h3.4V245.7z"/>
	<path fill="#999999" d="M543,221.2h-7.7v24.5h-3.4v-24.5h-7.9v-3h19.5L543,221.2z"/>
	<path fill="#999999" d="M560.4,235.1v10.6h-3.5v-10.6l-8.8-16.9h3.8l6.9,13.9l6.8-13.9h3.6L560.4,235.1z"/>
	<path fill="#999999" d="M609.4,220.4l-1.9,2.2c-1.8-1.4-3.4-2-5.4-2c-4.3,0-7.9,2.9-7.9,11.4c0,8,3.4,11.3,7.8,11.3
		c2.6,0,4.3-1.1,5.9-2.3l1.8,2.2c-1.5,1.6-4.1,3-7.8,3c-6.6,0-11.4-5-11.4-14.2c0-9.4,5.1-14.2,11.4-14.2
		C605.3,217.7,607.2,218.7,609.4,220.4z"/>
	<path fill="#999999" d="M639.9,232c0,9.1-4.6,14.2-11.5,14.2c-6.8,0-11.5-5-11.5-14.2c0-9.1,4.7-14.3,11.5-14.3
		C635.2,217.7,639.9,222.7,639.9,232z M620.5,232.1c0,8,3.2,11.3,7.8,11.3c4.8,0,7.8-3.3,7.8-11.3c0-8-3-11.4-7.8-11.4
		C623.7,220.6,620.5,224,620.5,232.1z"/>
	<path fill="#999999" d="M658.3,233.9h-4.6v11.8h-3.4v-27.5h7.1c6.8,0,10.3,2.6,10.3,7.7c0,3.9-2.1,6.2-6,7.4l7.4,12.4H665
		L658.3,233.9z M657.8,231.2c4,0,6.2-1.5,6.2-5.3c0-3.5-2-5-6.7-5h-3.6v10.3H657.8z"/>
	<path fill="#999999" d="M692.6,221h-10.8v9.3h9.4v2.8h-9.4v9.8h11.5v2.8h-15v-27.5H693L692.6,221z"/>
</g>
</svg>
